<?xml version="1.0" standalone="no"?>
<!DOCTYPE svg PUBLIC "-//W3C//DTD SVG 20010904//EN"
 "http://www.w3.org/TR/2001/REC-SVG-20010904/DTD/svg10.dtd">
<svg version="1.0" xmlns="http://www.w3.org/2000/svg"
 width="512.000000pt" height="512.000000pt" viewBox="0 0 512.000000 512.000000"
 preserveAspectRatio="xMidYMid meet">
<metadata>
Created by potrace 1.14, written by Peter Selinger 2001-2017
</metadata>
<g transform="translate(0.000000,512.000000) scale(0.100000,-0.100000)"
fill="#000000" stroke="none">
<path d="M2970 4479 c-502 -25 -980 -264 -1308 -654 -201 -239 -329 -485 -562
-1080 -196 -500 -281 -679 -375 -790 -64 -75 -118 -100 -259 -120 -65 -9 -139
-23 -165 -32 -133 -45 -231 -125 -276 -224 -25 -57 -27 -69 -23 -163 3 -93 7
-108 42 -180 52 -107 156 -213 240 -245 97 -36 193 -47 304 -33 53 7 122 12
152 12 l55 0 85 -89 c91 -95 123 -116 240 -152 66 -21 94 -24 235 -23 185 0
266 15 515 91 143 44 163 48 260 48 116 0 116 0 277 -96 128 -77 200 -101 323
-107 143 -6 197 9 409 116 170 85 175 87 245 87 69 0 75 -2 211 -75 135 -71
143 -74 220 -78 102 -5 162 16 287 102 177 121 173 119 235 118 39 -1 93 -13
163 -37 235 -82 404 -56 529 80 68 76 91 140 91 259 0 126 -27 217 -139 460
-51 111 -94 219 -100 252 -16 85 -13 191 10 422 34 334 5 607 -97 911 -154
461 -556 888 -1021 1084 -262 111 -499 151 -803 136z m380 -155 c257 -43 520
-158 731 -320 35 -27 108 -91 163 -144 410 -396 575 -930 501 -1620 -20 -193
-16 -319 15 -411 12 -34 54 -133 95 -218 40 -86 84 -193 99 -239 63 -200 14
-338 -138 -388 -68 -23 -146 -14 -286 32 -94 30 -130 37 -200 38 -101 1 -135
-13 -270 -114 -111 -82 -160 -104 -235 -105 -65 0 -93 11 -240 98 -168 99
-240 92 -519 -47 -305 -152 -359 -152 -596 -6 -144 89 -198 111 -290 117 -93
7 -151 -3 -355 -62 -254 -74 -468 -105 -590 -85 -119 19 -187 58 -290 164 -85
88 -93 94 -140 100 -30 4 -92 1 -152 -9 -126 -19 -183 -19 -251 -1 -77 21
-137 60 -183 121 -97 129 -106 276 -23 374 43 50 108 77 219 91 176 22 218 31
276 60 161 82 277 276 493 825 258 656 358 860 534 1095 329 438 869 695 1417
674 66 -2 163 -12 215 -20z"/>
<path d="M2314 3380 c-94 -47 -195 -122 -206 -151 -4 -11 -17 -79 -28 -150
-17 -113 -18 -135 -6 -162 17 -41 45 -65 93 -83 136 -48 220 24 248 214 18
119 29 303 20 341 -9 41 -25 40 -121 -9z"/>
<path d="M3162 3336 c-22 -49 -72 -332 -72 -411 0 -62 18 -114 55 -153 31 -35
37 -37 107 -40 86 -4 130 17 153 71 16 40 40 274 32 309 -12 47 -215 248 -251
248 -7 0 -18 -11 -24 -24z"/>
<path d="M2164 2560 c-74 -30 -69 -126 8 -166 33 -17 33 -10 12 -176 -5 -41
-3 -50 20 -72 54 -55 125 -22 152 71 l16 55 142 -4 c101 -4 158 -11 201 -24
l60 -20 18 -57 c15 -48 25 -61 52 -74 40 -19 80 -8 109 30 18 25 19 31 7 89
-15 75 -9 95 29 103 81 18 92 129 16 160 -19 8 -41 13 -48 11 -7 -3 -25 -7
-41 -10 -15 -4 -45 -23 -67 -43 l-40 -36 -58 16 c-91 26 -230 40 -317 33 l-81
-6 -19 36 c-30 57 -125 103 -171 84z"/>
</g>
</svg>
